<?xml version="1.0" standalone="no"?>
<!DOCTYPE svg PUBLIC "-//W3C//DTD SVG 20010904//EN"
 "http://www.w3.org/TR/2001/REC-SVG-20010904/DTD/svg10.dtd">
<svg version="1.0" xmlns="http://www.w3.org/2000/svg"
 width="512.000000pt" height="512.000000pt" viewBox="0 0 512.000000 512.000000"
 preserveAspectRatio="xMidYMid meet">

<g transform="translate(0.000000,512.000000) scale(0.100000,-0.100000)"
fill="#000000" stroke="none">
<path d="M1115 4789 c-203 -29 -348 -128 -415 -284 -58 -135 -54 -8 -58 -1970
-2 -1263 0 -1825 8 -1884 34 -262 162 -413 398 -468 71 -17 145 -18 1012 -18
833 0 953 2 1096 18 387 43 640 127 849 281 327 242 516 628 515 1057 -1 341
-108 608 -327 820 -105 101 -181 155 -326 230 l-108 55 70 48 c328 224 499
574 478 980 -16 307 -138 572 -362 785 -231 219 -501 320 -933 350 -183 13
-1807 13 -1897 0z m737 -256 c14 -15 22 -35 22 -58 0 -23 -8 -43 -22 -58 -20
-20 -35 -22 -132 -25 l-110 -4 -30 30 c-18 19 -30 41 -30 57 0 16 12 38 30 57
l30 30 110 -4 c97 -3 112 -5 132 -25z m1207 12 c31 -15 41 -33 41 -70 0 -37
-10 -55 -41 -70 -23 -13 -105 -15 -499 -15 l-472 0 -29 29 c-17 18 -29 40 -29
56 0 16 12 38 29 56 l29 29 472 0 c394 0 476 -2 499 -15z m-299 -609 c272 -43
393 -103 454 -224 47 -94 60 -253 31 -367 -33 -125 -136 -255 -241 -305 -140
-65 -295 -80 -856 -80 l-438 0 0 501 0 501 473 -5 c373 -4 494 -8 577 -21z
m120 -1805 c191 -33 332 -89 418 -166 61 -55 116 -159 133 -250 16 -88 6 -266
-20 -340 -59 -168 -192 -273 -414 -330 -150 -38 -278 -45 -799 -45 l-488 0 0
576 0 576 553 -5 c335 -3 578 -9 617 -16z"/>
</g>
</svg>
